#!OML:ASF E:\emotionWalksFemale\Project 1\Capture day 1\Session 1\Female1.ASF
:FULLY-SPECIFIED
:DEGREES
282
root 9.2623 11.8777 -5.65181 -168.659 2.83053 -177.468
lowerback 43.327 -0.465669 3.92552
upperback 3.68766 3.52251 1.28134
thorax -16.4789 2.04183 -2.58384
lowerneck -15.5924 -1.85318 -3.57054
upperneck -15.0361 -4.28239 2.47862
head -2.13808 -3.08876 1.31558
rclavicle 3.97569e-015 -2.38542e-015
rhumerus 1.34658 8.16425 -77.2824
rradius 38.038
rwrist 13.9804
rhand -16.5151 -51.6968
rfingers 7.12502
rthumb 9.70318 -81.4533
lclavicle 3.97569e-015 -2.38542e-015
lhumerus -26.7576 -4.38896 84.5995
lradius 45.2755
lwrist 4.27706
lhand -19.0179 -49.6412
lfingers 7.12502
lthumb 7.28785 -19.7867
rfemur -75.2278 6.64351 24.2419
rtibia 83.5563
rfoot -17.748 -13.7802
rtoes -7.63604
lfemur -79.0382 1.62493 -20.9666
ltibia 81.6247
lfoot -17.368 4.93811
ltoes -26.172
283
root 9.2426 11.7361 -5.73202 -168.328 2.62797 -177.401
lowerback 43.849 -0.765335 4.22754
upperback 3.57349 3.337 1.27809
thorax -16.7799 1.93556 -2.66996
lowerneck -15.4691 -1.79674 -3.8243
upperneck -15.288 -4.2179 2.46956
head -2.24278 -3.06275 1.36826
rclavicle 3.06128e-014 2.14687e-014
rhumerus 2.87487 7.2244 -77.2943
rradius 35.4969
rwrist 15.7992
rhand -16.3619 -51.9773
rfingers 7.12502
rthumb 9.851 -81.7269
lclavicle 3.06128e-014 2.14687e-014
lhumerus -24.8087 -5.33267 84.287
lradius 42.4522
lwrist 1.69555
lhand -19.9986 -51.1675
lfingers 7.12502
lthumb 6.34117 -21.2824
rfemur -76.5731 6.05256 24.5522
rtibia 85.5022
rfoot -18.6127 -13.7579
rtoes -7.32038
lfemur -80.4653 1.37348 -20.9923
ltibia 83.6377
lfoot -18.3028 5.08063
ltoes -26.8656
284
root 9.22193 11.5782 -5.82762 -167.865 2.41974 -177.208
lowerback 44.2453 -1.04821 4.62604
upperback 3.40669 3.20781 1.32645
thorax -17.1005 1.8378 -2.77095
lowerneck -15.6092 -1.82344 -4.19528
upperneck -15.2901 -4.21153 2.5971
head -2.21522 -3.05351 1.47085
rclavicle 2.50469e-014 2.62396e-014
rhumerus 4.20853 6.62566 -77.2501
rradius 33.1828
rwrist 17.4294
rhand -16.0501 -52.0777
rfingers 7.12502
rthumb 10.1518 -81.8128
lclavicle 2.50469e-014 2.62396e-014
lhumerus -22.5902 -6.93755 84.0889
lradius 39.069
lwrist -1.25878
lhand -24.0783 -54.6159
lfingers 7.12502
lthumb 2.40174 -24.6496
rfemur -78.0917 5.45462 25.0653
rtibia 87.6987
rfoot -19.4403 -13.6027
rtoes -6.73478
lfemur -82.1476 1.27215 -20.9843
ltibia 85.7817
lfoot -19.1906 5.23317
ltoes -27.5371
285
root 9.1968 11.4381 -5.91917 -167.578 2.38492 -177.153
lowerback 44.5476 -1.26801 4.9094
upperback 3.36775 3.10786 1.32743
thorax -17.2351 1.77656 -2.8739
lowerneck -15.545 -1.89251 -4.54388
upperneck -15.459 -4.27321 2.79866
head -2.27299 -3.08321 1.60154
rclavicle -1.35174e-014 -3.18055e-015
rhumerus 5.39381 6.25619 -77.1323
rradius 31.2278
rwrist 18.6818
rhand -15.8658 -51.9963
rfingers 7.12502
rthumb 10.3296 -81.7226
lclavicle -1.35174e-014 -3.18055e-015
lhumerus -20.4507 -8.27131 83.8638
lradius 37.0866
lwrist -1.56057
lhand -24.9708 -55.3961
lfingers 7.12502
lthumb 1.53975 -25.4219
rfemur -79.2724 4.82138 25.4695
rtibia 89.7434
rfoot -20.5567 -13.319
rtoes -6.89357
lfemur -83.4267 1.34164 -21.2124
ltibia 87.7881
lfoot -20.2453 5.40793
ltoes -27.5222
286
root 9.17464 11.2925 -5.98431 -166.827 2.04552 -177.284
lowerback 44.4046 -1.51455 5.16119
upperback 3.24868 2.87828 1.33369
thorax -17.3377 1.64426 -2.87888
lowerneck -15.7753 -1.95631 -4.88601
upperneck -15.5145 -4.32811 3.00797
head -2.24626 -3.11492 1.7249
rclavicle -1.98785e-015 2.38542e-015
rhumerus 6.32644 6.32113 -76.8687
rradius 29.9389
rwrist 19.7011
rhand -15.8491 -51.8999
rfingers 7.12502
rthumb 10.3457 -81.6254
lclavicle -1.98785e-015 2.38542e-015
lhumerus -18.5851 -9.22488 83.6546
lradius 35.796
lwrist -1.67777
lhand -26.141 -56.2858
lfingers 7.12502
lthumb 0.409525 -26.3065
rfemur -81.1566 3.88127 25.6793
rtibia 91.7887
rfoot -21.6043 -13.0215
rtoes -7.21723
lfemur -85.3142 1.02468 -21.6232
ltibia 89.6936
lfoot -21.0099 5.5839
ltoes -27.8885
287
root 9.1545 11.2009 -6.06423 -166.811 2.28293 -177.123
lowerback 44.9106 -1.5428 5.2034
upperback 3.2842 2.94556 1.3442
thorax -17.4478 1.68084 -2.9335
lowerneck -16.0385 -1.97941 -5.13648
upperneck -15.5773 -4.34344 3.20618
head -2.21975 -3.13296 1.8302
rclavicle 8.34896e-015 6.36111e-015
rhumerus 7.08977 7.20984 -76.3163
rradius 29.3674
rwrist 20.0109
rhand -15.8757 -51.6378
rfingers 7.12502
rthumb 10.3201 -81.3646
lclavicle 8.34896e-015 6.36111e-015
lhumerus -16.9228 -9.73493 83.3695
lradius 35.1427
lwrist -1.34948
lhand -26.9686 -56.9905
lfingers 7.12502
lthumb -0.389757 -27.0111
rfemur -81.6395 3.51304 26.129
rtibia 93.275
rfoot -22.5961 -12.7113
rtoes -7.33142
lfemur -85.9127 1.39612 -21.7982
ltibia 91.3669
lfoot -22.0717 5.67113
ltoes -27.4103
288
root 9.14882 11.018 -6.14632 -166.34 1.96217 -176.992
lowerback 45.2425 -1.68372 5.28081
upperback 3.11528 2.84542 1.44782
thorax -17.7698 1.61462 -2.81509
lowerneck -16.5002 -1.93828 -5.23886
upperneck -15.5216 -4.28675 3.37477
head -2.12712 -3.12187 1.89505
rclavicle -1.19271e-015 6.36111e-015
rhumerus 7.6642 8.41034 -75.7216
rradius 29.3139
rwrist 20.0557
rhand -15.7035 -51.3747
rfingers 7.12502
rthumb 10.4862 -81.0931
lclavicle -1.19271e-015 6.36111e-015
lhumerus -15.599 -10.1886 83.0023
lradius 35.2298
lwrist -0.363357
lhand -27.5237 -57.6242
lfingers 7.12502
lthumb -0.925931 -27.6465
rfemur -83.3957 2.8885 26.6648
rtibia 95.3162
rfoot -23.3962 -12.5661
rtoes -7.06234
lfemur -87.8446 1.48519 -22.0606
ltibia 93.4395
lfoot -22.7173 5.38545
ltoes -26.4218
